<?xml version="1.0" standalone="no"?>
<!DOCTYPE svg PUBLIC "-//W3C//DTD SVG 20010904//EN"
 "http://www.w3.org/TR/2001/REC-SVG-20010904/DTD/svg10.dtd">
<svg version="1.0" xmlns="http://www.w3.org/2000/svg"
 width="512.000000pt" height="512.000000pt" viewBox="0 0 512.000000 512.000000"
 preserveAspectRatio="xMidYMid meet">
<metadata>
Created by potrace 1.14, written by Peter Selinger 2001-2017
</metadata>
<g transform="translate(0.000000,512.000000) scale(0.100000,-0.100000)"
fill="#000000" stroke="none">
<path d="M1857 5109 c-77 -18 -146 -69 -177 -130 -17 -32 -20 -59 -20 -158 l0
-120 -52 -25 c-29 -14 -74 -47 -99 -73 -67 -69 -830 -1031 -851 -1073 -17 -32
-18 -90 -18 -863 0 -521 4 -835 10 -847 5 -10 23 -23 40 -28 29 -11 30 -13 30
-76 0 -53 -3 -66 -15 -66 -9 0 -27 -11 -40 -25 -24 -23 -25 -29 -25 -163 0
-156 7 -177 67 -188 26 -5 37 -1 57 19 23 23 26 35 26 92 l0 65 1030 0 1030 0
0 -650 0 -650 -1018 0 c-778 0 -1021 3 -1030 12 -9 9 -12 130 -12 484 0 462 0
472 -21 498 -27 34 -77 36 -108 3 l-22 -24 3 -500 3 -499 24 -35 c13 -19 40
-46 60 -60 l36 -24 1775 -3 c1221 -2 1786 0 1811 8 46 13 105 76 119 128 7 28
9 556 8 1723 l-3 1684 -22 40 c-56 104 -647 1034 -678 1068 l-35 37 0 118 c0
107 -2 123 -26 170 -30 61 -84 102 -164 126 -47 14 -147 16 -854 15 -441 -1
-818 -5 -839 -10z m1680 -162 c46 -25 53 -44 53 -146 l0 -91 -890 0 -890 0 0
98 c0 91 2 100 24 121 14 13 40 27 58 31 18 5 389 8 823 7 733 -2 792 -3 822
-20z m-67 -403 c0 -4 -127 -208 -282 -455 l-283 -449 -988 0 -988 0 78 98
c553 694 627 785 657 798 25 11 191 13 919 14 488 0 887 -3 887 -6z m484 -449
l285 -450 -284 -3 c-156 -1 -414 -1 -574 0 l-291 3 287 452 c158 249 288 452
289 450 1 -1 131 -204 288 -452z m-1104 -1030 l0 -425 -1030 0 -1030 0 0 413
c0 308 3 416 12 425 9 9 252 12 1030 12 l1018 0 0 -425z m1480 5 l0 -420 -665
0 -665 0 0 420 0 420 665 0 665 0 0 -420z m-3258 -652 c9 -7 48 -64 86 -126
51 -82 72 -109 79 -100 5 7 34 54 63 103 29 50 62 100 73 113 26 28 76 29 108
3 l24 -19 0 -322 0 -322 -24 -19 c-32 -26 -82 -25 -109 4 -20 21 -22 35 -24
172 l-3 150 -28 -47 c-33 -57 -58 -72 -103 -63 -28 5 -41 16 -67 58 l-32 52
-5 -145 c-4 -80 -10 -153 -14 -163 -19 -40 -93 -50 -126 -17 -19 19 -20 33
-20 340 0 307 1 321 20 340 23 23 77 27 102 8z m645 -10 l23 -21 0 -319 c0
-305 -1 -319 -20 -338 -21 -21 -69 -26 -100 -10 -35 19 -40 64 -40 351 0 280
4 322 37 347 26 19 74 14 100 -10z m231 2 c22 -20 22 -26 22 -280 l0 -260 79
0 c87 0 137 -13 151 -40 16 -31 11 -79 -10 -100 -18 -18 -33 -20 -171 -20 -83
0 -159 4 -169 10 -35 19 -40 64 -40 351 0 280 4 322 37 347 25 19 76 15 101
-8z m440 -3 c18 -19 22 -37 24 -116 l3 -93 83 110 c46 61 90 113 99 116 57 22
113 -13 113 -71 0 -25 -17 -55 -78 -136 l-78 -102 93 -149 c69 -111 93 -157
93 -182 0 -61 -53 -90 -113 -63 -13 6 -53 58 -93 121 -38 61 -72 115 -77 122
-5 7 -14 4 -27 -13 -17 -19 -20 -38 -20 -109 0 -74 -3 -89 -22 -109 -23 -24
-66 -30 -98 -13 -35 19 -40 64 -40 351 0 280 4 322 37 347 27 20 77 15 101
-11z m1942 -1588 c0 -415 -4 -637 -10 -650 -10 -18 -28 -19 -655 -19 -627 0
-645 1 -655 19 -6 13 -10 235 -10 650 l0 631 665 0 665 0 0 -631z"/>
</g>
</svg>
